<svg width="474.5299926757812px" height="94.88000183105468px" xmlns="http://www.w3.org/2000/svg" viewBox="12.735003662109392 27.559999084472658 474.5299926757812 94.88000183105468" style="background: rgb(233, 182, 174);" preserveAspectRatio="xMidYMid"><defs><filter id="editing-hover" x="-100%" y="-100%" width="300%" height="300%"><feFlood flood-color="#e9b6ae" result="flood"></feFlood><feComposite operator="in" in2="SourceAlpha" in="flood" result="shadow"></feComposite><feOffset dx="2.1" dy="2.1" in="SourceGraphic" result="offset-1"></feOffset><feOffset dx="-2.1" dy="-2.1" in="shadow" result="offset-2"></feOffset><feMerge><feMergeNode in="offset-2"></feMergeNode><feMergeNode in="offset-1"></feMergeNode></feMerge></filter></defs><g filter="url(#editing-hover)"><g transform="translate(80.9800214767456, 92.96000099182129)"><path d="M9.63-35.26L9.35-11L9.57 0L5.12 0L5.39-10.62L5.12-35.26L9.63-35.26ZM46.04-27.39L48.84 0L45.16 0L44.55-8.36L43.06-21.01L42.73-21.01L34.87-3.08L31.63-3.08L24.20-21.01L23.87-21.01L22.44-8.69L21.67 0L18.15 0L21.18-27.39L25.96-27.39L27.34-23.27L33.33-8.53L33.66-8.53L39.93-23.48L41.36-27.39L46.04-27.39ZM68.97-27.39L78.59 0L74.47 0L73.81-2.97L72.38-7.04L65.83-7.09L60.01-7.04L58.52-3.19L57.75 0L53.68 0L64.24-27.39L68.97-27.39ZM66.16-10.34L71.22-10.39L66.66-23.38L66.33-23.38L61.33-10.39L66.16-10.34ZM96.53-27.66L96.53-27.66Q100.82-27.66 105.16-25.80L105.16-25.80L103.79-21.84L103.29-21.84L103.29-21.84Q101.26-23.16 99.55-23.68L99.55-23.68L99.55-23.68Q97.84-24.20 95.87-24.20L95.87-24.20L95.87-24.20Q91.19-24.20 88.85-21.56L88.85-21.56L88.85-21.56Q86.52-18.92 86.52-13.31L86.52-13.31L86.52-13.31Q86.52-7.92 88.66-5.53L88.66-5.53L88.66-5.53Q90.81-3.14 95.48-3.14L95.48-3.14L95.48-3.14Q96.86-3.14 98.12-3.38L98.12-3.38L98.12-3.38Q99.39-3.63 101.20-4.29L101.20-4.29L101.20-7.04L101.15-10.95L104.94-11.22L104.94-1.32L104.94-1.32Q99.39 0.33 95.32 0.33L95.32 0.33L95.32 0.33Q88.83 0.33 85.50-3.16L85.50-3.16L85.50-3.16Q82.17-6.66 82.17-13.14L82.17-13.14L82.17-13.14Q82.17-20.18 85.94-23.93L85.94-23.93L85.94-23.93Q89.71-27.66 96.53-27.66L96.53-27.66ZM122.98-3.30L130.30-3.52L130.63-3.19L130.24 0L113.58 0L113.74-8.25L113.58-27.39L130.35-27.39L130.63-27.06L130.30-23.87L123.36-24.09L117.64-24.04L117.59-15.73L123.03-15.68L127.82-15.84L128.09-15.46L127.77-12.21L122.70-12.38L117.59-12.32L117.53-8.58L117.59-3.35L122.98-3.30ZM145.59-27.66L145.59-27.66Q148.94-27.66 152.30-26.34L152.30-26.34L151.58-22.27L150.92-22.11L150.92-22.11Q149.38-23.32 148.01-23.90L148.01-23.90L148.01-23.90Q146.63-24.48 145.15-24.48L145.15-24.48L145.15-24.48Q142.78-24.48 141.41-23.24L141.41-23.24L141.41-23.24Q140.03-22 140.03-20.41L140.03-20.41L140.03-20.41Q140.03-18.81 141.38-17.82L141.38-17.82L141.38-17.82Q142.73-16.83 145.53-15.62L145.53-15.62L145.53-15.62Q148.01-14.52 149.46-13.64L149.46-13.64L149.46-13.64Q150.92-12.76 151.99-11.30L151.99-11.30L151.99-11.30Q153.06-9.85 153.06-7.75L153.06-7.75L153.06-7.75Q153.06-5.61 151.91-3.77L151.91-3.77L151.91-3.77Q150.76-1.93 148.53-0.80L148.53-0.80L148.53-0.80Q146.30 0.33 143.22 0.33L143.22 0.33L143.22 0.33Q141.30 0.33 139.18-0.14L139.18-0.14L139.18-0.14Q137.06-0.60 135.25-1.54L135.25-1.54L135.74-5.88L136.29-6.11L136.29-6.11Q137.83-4.57 139.89-3.71L139.89-3.71L139.89-3.71Q141.96-2.86 143.72-2.86L143.72-2.86L143.72-2.86Q146.03-2.86 147.51-4.10L147.51-4.10L147.51-4.10Q149.00-5.33 149.00-7.09L149.00-7.09L149.00-7.09Q149.00-8.74 147.65-9.73L147.65-9.73L147.65-9.73Q146.30-10.72 143.44-12.04L143.44-12.04L143.44-12.04Q141.08-13.09 139.56-13.97L139.56-13.97L139.56-13.97Q138.05-14.85 137.01-16.31L137.01-16.31L137.01-16.31Q135.96-17.77 135.96-19.86L135.96-19.86L135.96-19.86Q135.96-22.05 137.14-23.82L137.14-23.82L137.14-23.82Q138.33-25.57 140.50-26.62L140.50-26.62L140.50-26.62Q142.67-27.66 145.59-27.66L145.59-27.66ZM175.18-35.53L175.18-35.53Q180.73-35.53 185.52-33.05L185.52-33.05L184.64-28.88L184.09-28.77L184.09-28.77Q181.45-30.41 179.22-31.13L179.22-31.13L179.22-31.13Q176.99-31.84 174.52-31.84L174.52-31.84L174.52-31.84Q162.58-31.84 162.58-17.11L162.58-17.11L162.58-17.11Q162.58-10.01 165.36-6.68L165.36-6.68L165.36-6.68Q168.14-3.35 173.97-3.35L173.97-3.35L173.97-3.35Q175.51-3.35 177.07-3.63L177.07-3.63L177.07-3.63Q178.64-3.90 181.12-4.67L181.12-4.67L181.23-8.80L181.17-14.08L185.30-14.41L185.19-9.40L185.41-1.71L185.41-1.71Q181.83-0.60 179.08-0.11L179.08-0.11L179.08-0.11Q176.33 0.39 173.75 0.39L173.75 0.39L173.75 0.39Q165.88 0.39 161.95-4.07L161.95-4.07L161.95-4.07Q158.02-8.53 158.02-16.94L158.02-16.94L158.02-16.94Q158.02-26.02 162.47-30.77L162.47-30.77L162.47-30.77Q166.93-35.53 175.18-35.53L175.18-35.53ZM205.65-27.39L215.27 0L211.15 0L210.49-2.97L209.06-7.04L202.51-7.09L196.68-7.04L195.20-3.19L194.43 0L190.36 0L200.92-27.39L205.65-27.39ZM202.84-10.34L207.90-10.39L203.34-23.38L203.01-23.38L198.00-10.39L202.84-10.34ZM236.61-3.46L236.83-3.08L236.56 0L221.98 0L222.15-8.25L221.98-27.39L226.11-27.39L225.94-8.58L226.05-3.46L236.61-3.46ZM257.35-3.46L257.56-3.08L257.29 0L242.72 0L242.88-8.25L242.72-27.39L246.84-27.39L246.68-8.58L246.78-3.46L257.35-3.46ZM272.97-3.30L280.28-3.52L280.61-3.19L280.23 0L263.56 0L263.73-8.25L263.56-27.39L280.34-27.39L280.61-27.06L280.28-23.87L273.35-24.09L267.63-24.04L267.57-15.73L273.02-15.68L277.81-15.84L278.08-15.46L277.75-12.21L272.69-12.38L267.57-12.32L267.52-8.58L267.57-3.35L272.97-3.30ZM300.08-11.05L300.08-11.05Q303.44-5.94 307.50-0.99L307.50-0.99L307.45-0.44L307.45-0.44Q305.14 0.28 303.66 0.39L303.66 0.39L302.94-0.06L302.94-0.06Q298.76-6.38 296.62-10.01L296.62-10.01L291.45-9.96L291.45-8.58L291.56 0L287.49 0L287.65-8.25L287.49-27.39L296.84-27.45L296.84-27.45Q301.18-27.45 303.52-25.41L303.52-25.41L303.52-25.41Q305.86-23.38 305.86-19.52L305.86-19.52L305.86-19.52Q305.86-16.72 304.34-14.52L304.34-14.52L304.34-14.52Q302.83-12.32 300.08-11.05L300.08-11.05ZM291.56-24.09L291.50-13.37L296.67-13.20L296.67-13.20Q301.57-14.57 301.57-19.20L301.57-19.20L301.57-19.20Q301.57-21.61 300.14-22.82L300.14-22.82L300.14-22.82Q298.71-24.04 295.79-24.14L295.79-24.14L291.56-24.09ZM322.74-9.57L322.69-7.87L322.85 0L318.73 0L318.95-7.87L318.89-9.57L309.60-27.39L314.11-27.39L314.66-25.80L320.82-14.03L321.09-14.03L327.80-25.63L328.52-27.39L332.92-27.39L322.74-9.57Z" fill="#ce6260"></path></g></g><style>text {
  font-size: 64px;
  font-family: Arial Black;
  dominant-baseline: central;
  text-anchor: middle;
}</style></svg>